<?xml version="1.0" ?><!DOCTYPE svg  PUBLIC '-//W3C//DTD SVG 1.1//EN'  'http://www.w3.org/Graphics/SVG/1.1/DTD/svg11.dtd'><svg height="128px" id="Layer_1" style="enable-background:new 0 0 127.999 128;" version="1.1" viewBox="0 0 127.999 128" width="127.999px" xml:space="preserve" xmlns="http://www.w3.org/2000/svg" xmlns:xlink="http://www.w3.org/1999/xlink"><style type="text/css">
<![CDATA[
	.st0{fill:#231F20;}
]]>
</style><g><path class="st0" d="M28.746,63.955c0,0.032,0,0.065,0,0.099c0,8.264,2.897,16.224,8.187,22.561   c2.774-4.31,12.542-17.776,29.301-23.193c0.117-0.04,0.235-0.078,0.354-0.116c-0.634-1.395-1.329-2.843-2.075-4.324   c-15.87,4.611-31.187,4.975-35.56,4.975C28.882,63.955,28.812,63.955,28.746,63.955z"/><path class="st0" d="M60.519,51.572c-5.206-9.11-10.547-16.698-12.248-19.063c-9.228,4.622-16.047,13.152-18.504,23.12   C34.13,55.592,46.466,55.142,60.519,51.572z"/><path class="st0" d="M84.772,68.676c-2.113,0-4.192,0.133-6.197,0.396c3.802,10.696,5.691,19.573,6.395,23.312   c7.145-5.307,12.073-13.163,13.696-21.868C96.633,69.95,91.328,68.676,84.772,68.676z"/><path class="st0" d="M57.224,29.453c2.12,2.929,7.33,10.369,12.27,19.329c10.292-4.038,15.523-9.655,17.183-11.708   c-6.352-5.346-14.364-8.278-22.67-8.278C61.721,28.796,59.446,29.017,57.224,29.453z"/><path class="st0" d="M92.067,42.735c-2.174,2.575-8.056,8.575-18.883,13.2c0.703,1.476,1.363,2.933,1.967,4.345   c0.167,0.396,0.333,0.789,0.496,1.183c2.437-0.274,5.029-0.413,7.721-0.413c7.096,0,13.177,0.947,15.858,1.44   C98.904,55.353,96.393,48.422,92.067,42.735z"/><path class="st0" d="M77.046,96.811c-0.688-3.807-2.753-13.823-7.202-25.609c-17.6,6.354-25.024,17.929-26.816,21.173   c6.104,4.542,13.339,6.938,20.979,6.938C68.52,99.312,72.902,98.471,77.046,96.811z"/><path class="st0" d="M64.006,7.989c-30.885,0-56.011,25.126-56.011,56.01c0,30.885,25.126,56.012,56.011,56.012   c30.884,0,56.01-25.127,56.01-56.012C120.016,33.115,94.89,7.989,64.006,7.989z M64.006,107.448   c-23.957,0-43.448-19.492-43.448-43.451c0-23.956,19.491-43.446,43.448-43.446s43.448,19.49,43.448,43.446   C107.454,87.956,87.963,107.448,64.006,107.448z"/></g></svg>